<svg data-v-423bf9ae="" xmlns="http://www.w3.org/2000/svg" viewBox="0 0 330.6098659593659 60" class="font"><!----><!----><defs data-v-423bf9ae=""><linearGradient data-v-423bf9ae="" gradientTransform="rotate(25)" id="cb20bc62-d261-4314-ade1-c29c49918ea5" x1="0%" y1="0%" x2="100%" y2="0%"><stop data-v-423bf9ae="" offset="0%" style="stop-color: rgb(62, 110, 129); stop-opacity: 1;"></stop><stop data-v-423bf9ae="" offset="100%" style="stop-color: rgb(69, 135, 161); stop-opacity: 1;"></stop></linearGradient></defs><g data-v-423bf9ae="" id="8cf0a7ca-2878-4df7-a1ba-1cb11a014c95" fill="url(#cb20bc62-d261-4314-ade1-c29c49918ea5)" transform="matrix(5.808325309113267,0,0,5.808325309113267,-4.820905753633042,-19.34172188253281)"><path d="M0.83 10.82L0.83 10.82Q0.83 10.53 1.02 10.53L1.02 10.53Q1.20 10.53 1.25 10.67L1.25 10.67Q1.39 11.00 1.51 11.25Q1.62 11.49 1.89 11.85Q2.16 12.21 2.46 12.44Q2.77 12.67 3.25 12.84Q3.74 13.01 4.31 13.01L4.31 13.01Q5.36 13.01 6.00 12.45Q6.64 11.90 6.64 11.00L6.64 11.00Q6.64 10.35 6.20 9.90Q5.77 9.46 5.21 9.27Q4.65 9.09 3.79 8.77Q2.93 8.46 2.38 8.13L2.38 8.13Q1.11 7.38 1.11 6.08L1.11 6.08Q1.11 4.83 2.01 4.08Q2.91 3.33 4.35 3.33L4.35 3.33Q4.89 3.33 5.62 3.56Q6.36 3.79 6.37 3.79L6.37 3.79Q6.41 3.79 6.52 3.74Q6.64 3.68 6.69 3.68L6.69 3.68Q6.87 3.68 6.90 3.79L6.90 3.79Q7.20 5.49 7.20 5.70L7.20 5.70Q7.20 6.09 7 6.09L7 6.09Q6.87 6.09 6.80 5.89L6.80 5.89Q6.64 5.49 6.48 5.24Q6.31 4.98 6.24 4.91Q6.17 4.84 5.88 4.58L5.88 4.58Q5.12 3.91 4.05 3.91L4.05 3.91Q3.18 3.91 2.59 4.33Q2.00 4.75 2.00 5.46L2.00 5.46Q2.00 6.09 2.35 6.50Q2.69 6.90 3.26 7.13Q3.84 7.35 4.47 7.55Q5.10 7.74 5.80 8.09Q6.51 8.44 6.97 8.93L6.97 8.93Q7.53 9.53 7.53 10.43L7.53 10.43Q7.53 11.90 6.59 12.76Q5.66 13.62 4.27 13.62L4.27 13.62Q3.30 13.62 2.72 13.52Q2.13 13.41 1.51 13.09L1.51 13.09Q1.33 12.98 1.08 12.00Q0.83 11.02 0.83 10.82ZM8.65 8.12L8.65 8.12Q8.65 7.97 8.84 7.89Q9.03 7.81 9.54 7.65Q10.05 7.49 10.50 7.28L10.50 7.28Q10.64 7.22 10.70 7.22L10.70 7.22Q10.88 7.22 10.88 7.50L10.88 7.50Q10.88 7.56 10.87 7.69Q10.86 7.81 10.86 7.88L10.86 7.88Q10.86 8.18 10.88 8.30Q10.89 8.43 10.91 8.46Q10.93 8.48 10.98 8.48L10.98 8.48Q11.00 8.48 11.19 8.20Q11.37 7.92 11.70 7.64Q12.04 7.35 12.45 7.35L12.45 7.35Q12.70 7.35 13.10 7.62L13.10 7.62Q13.40 7.81 13.40 8.02L13.40 8.02Q13.40 8.27 13.29 8.47Q13.17 8.67 13.07 8.74Q12.96 8.81 12.92 8.81L12.92 8.81Q12.81 8.81 12.52 8.64Q12.24 8.47 11.86 8.47Q11.48 8.47 11.15 8.78Q10.82 9.09 10.82 9.34L10.82 9.34L10.82 10.79Q10.82 11.30 10.83 11.61Q10.84 11.93 10.84 12.00Q10.84 12.08 10.84 12.14Q10.85 12.19 10.85 12.26L10.85 12.26Q10.85 12.56 11.05 12.77Q11.24 12.98 11.51 13.02L11.51 13.02Q11.59 13.03 11.72 13.05Q11.84 13.06 11.91 13.07Q11.98 13.08 12.07 13.10Q12.15 13.12 12.19 13.16Q12.22 13.20 12.22 13.26L12.22 13.26Q12.22 13.48 12.05 13.48L12.05 13.48Q11.82 13.48 11.41 13.45Q11.00 13.41 10.86 13.41L10.86 13.41Q10.42 13.41 9.94 13.45Q9.46 13.48 9.41 13.48L9.41 13.48Q9.27 13.48 9.20 13.45Q9.13 13.43 9.11 13.40Q9.10 13.37 9.10 13.31L9.10 13.31Q9.10 13.13 9.28 13.08L9.28 13.08Q9.65 12.99 9.72 12.72Q9.80 12.45 9.80 11.55L9.80 11.55Q9.80 10.64 9.79 10.05Q9.79 9.46 9.79 9.30Q9.79 9.14 9.78 9.04Q9.77 8.95 9.77 8.88L9.77 8.88Q9.77 8.72 9.73 8.62Q9.69 8.53 9.53 8.44Q9.37 8.36 9.07 8.36L9.07 8.36Q9.06 8.36 9.00 8.35Q8.95 8.34 8.92 8.34L8.92 8.34Q8.65 8.34 8.65 8.12ZM14.10 8.11L14.10 8.11Q14.10 8.04 14.13 7.99Q14.17 7.95 14.27 7.90Q14.38 7.85 14.49 7.82Q14.60 7.78 14.82 7.71Q15.04 7.63 15.23 7.55L15.23 7.55Q15.39 7.48 15.52 7.42Q15.65 7.36 15.69 7.34Q15.74 7.32 15.79 7.31Q15.85 7.29 15.93 7.29L15.93 7.29Q16.14 7.29 16.14 7.56L16.14 7.56Q16.14 7.63 16.10 7.87Q16.06 8.11 16.06 8.23L16.06 8.23L16.06 12.07Q16.06 12.49 16.19 12.73Q16.32 12.96 16.47 13.02Q16.62 13.08 16.84 13.09L16.84 13.09Q17.01 13.10 17.07 13.11Q17.12 13.12 17.19 13.16Q17.26 13.20 17.26 13.30L17.26 13.30Q17.26 13.54 17.02 13.54L17.02 13.54Q17.00 13.54 16.93 13.53Q16.86 13.52 16.81 13.52L16.81 13.52Q16.51 13.52 16.30 13.51Q16.09 13.50 15.82 13.50L15.82 13.50Q15.48 13.50 15.19 13.51Q14.90 13.52 14.83 13.52L14.83 13.52Q14.27 13.52 14.27 13.34L14.27 13.34Q14.27 13.15 14.48 13.08L14.48 13.08Q14.49 13.08 14.53 13.06L14.53 13.06Q14.85 12.95 14.92 12.78L14.92 12.78Q15.05 12.50 15.05 10.56L15.05 10.56L15.05 9.32Q15.05 8.92 14.95 8.68Q14.85 8.44 14.77 8.39Q14.69 8.33 14.48 8.29Q14.28 8.26 14.24 8.25L14.24 8.25Q14.10 8.19 14.10 8.11ZM14.90 5.18L14.90 5.18Q14.90 5.01 15.14 4.71Q15.39 4.41 15.60 4.41L15.60 4.41Q15.82 4.41 16.03 4.70Q16.24 4.98 16.24 5.21Q16.24 5.43 15.97 5.70Q15.71 5.98 15.58 5.98L15.58 5.98Q15.30 5.98 15.10 5.68Q14.90 5.39 14.90 5.18ZM18.00 8.01L18.00 8.01Q18.00 7.88 18.17 7.82Q18.34 7.76 18.68 7.69Q19.01 7.62 19.24 7.52L19.24 7.52Q19.32 7.49 19.42 7.43Q19.52 7.38 19.57 7.36Q19.61 7.34 19.69 7.32Q19.77 7.31 19.85 7.31L19.85 7.31Q20.02 7.31 20.02 7.71L20.02 7.71Q20.02 7.81 19.98 8.04Q19.95 8.26 19.95 8.30L19.95 8.30Q19.95 8.47 20.03 8.47L20.03 8.47Q20.05 8.47 20.13 8.36Q20.20 8.26 20.34 8.11Q20.47 7.97 20.66 7.82Q20.86 7.67 21.19 7.57Q21.52 7.46 21.92 7.46L21.92 7.46Q22.44 7.46 22.82 7.64Q23.20 7.81 23.34 8.02Q23.49 8.22 23.59 8.39Q23.69 8.57 23.72 8.57L23.72 8.57Q23.73 8.57 23.98 8.28Q24.22 7.99 24.68 7.71Q25.13 7.42 25.63 7.42L25.63 7.42Q26.66 7.42 27.21 8.02Q27.76 8.62 27.86 9.52L27.86 9.52Q27.94 10.35 27.94 11.30L27.94 11.30L27.94 11.75Q27.94 12.38 28.01 12.66Q28.08 12.94 28.34 13.02L28.34 13.02Q28.35 13.02 28.46 13.04Q28.57 13.06 28.65 13.08Q28.73 13.09 28.80 13.15Q28.87 13.20 28.87 13.29L28.87 13.29Q28.87 13.50 28.41 13.50L28.41 13.50Q28.32 13.50 27.98 13.47Q27.64 13.44 27.48 13.44L27.48 13.44Q27.27 13.44 26.94 13.47Q26.61 13.50 26.47 13.50L26.47 13.50Q26.14 13.50 26.14 13.36L26.14 13.36Q26.14 13.20 26.43 13.09Q26.73 12.98 26.78 12.85L26.78 12.85Q26.84 12.70 26.84 12.21L26.84 12.21L26.84 11.98Q26.84 11.51 26.83 11.15Q26.82 10.79 26.82 10.49Q26.82 10.19 26.80 9.97Q26.78 9.74 26.78 9.58Q26.78 9.42 26.74 9.29Q26.70 9.16 26.69 9.09Q26.68 9.02 26.61 8.92Q26.54 8.82 26.53 8.79Q26.52 8.76 26.43 8.65Q26.33 8.54 26.31 8.51L26.31 8.51Q25.94 8.08 25.26 8.08L25.26 8.08Q24.93 8.08 24.58 8.25Q24.23 8.41 24.02 8.59Q23.81 8.76 23.81 8.83L23.81 8.83Q23.81 8.88 23.84 9.03Q23.86 9.18 23.88 9.58Q23.90 9.98 23.90 10.61L23.90 10.61L23.90 11.80Q23.90 12.45 24.08 12.75Q24.26 13.05 24.86 13.13L24.86 13.13Q25.00 13.15 25.06 13.22Q25.12 13.30 25.12 13.36L25.12 13.36Q25.12 13.51 24.85 13.51L24.85 13.51Q24.75 13.51 24.40 13.47Q24.05 13.44 23.83 13.44L23.83 13.44Q23.69 13.44 23.14 13.47Q22.60 13.51 22.55 13.51L22.55 13.51Q22.25 13.51 22.25 13.33L22.25 13.33Q22.25 13.23 22.30 13.18Q22.36 13.13 22.57 13.05L22.57 13.05Q22.65 13.02 22.70 12.99Q22.75 12.96 22.82 12.75Q22.89 12.54 22.89 12.18L22.89 12.18Q22.89 12.12 22.89 12.07Q22.89 12.01 22.90 11.92Q22.90 11.83 22.90 11.50Q22.90 11.17 22.90 10.65L22.90 10.65Q22.90 10.35 22.90 10.16Q22.89 9.97 22.89 9.91Q22.89 9.86 22.88 9.82Q22.88 9.79 22.88 9.77L22.88 9.77Q22.88 9.03 22.50 8.58Q22.12 8.13 21.45 8.13L21.45 8.13Q20.86 8.13 20.40 8.44Q19.94 8.75 19.94 9.16L19.94 9.16L19.94 9.35L19.94 11.98Q19.94 12.49 20.12 12.75Q20.30 13.02 20.52 13.05Q20.75 13.09 20.93 13.13Q21.11 13.17 21.11 13.27L21.11 13.27Q21.11 13.40 21.07 13.44Q21.03 13.48 20.82 13.48L20.82 13.48Q20.76 13.48 20.38 13.46Q19.99 13.44 19.64 13.44L19.64 13.44Q19.32 13.44 18.96 13.46Q18.59 13.48 18.54 13.48L18.54 13.48Q18.20 13.48 18.20 13.27L18.20 13.27Q18.20 13.17 18.28 13.13Q18.35 13.09 18.45 13.08Q18.55 13.06 18.66 12.96Q18.77 12.85 18.84 12.66L18.84 12.66Q18.96 12.26 18.96 10.53L18.96 10.53Q18.96 10.26 18.95 9.69Q18.94 9.11 18.94 8.82L18.94 8.82Q18.94 8.48 18.80 8.34Q18.65 8.20 18.47 8.21Q18.30 8.22 18.15 8.18Q18.00 8.15 18.00 8.01ZM29.82 12.25L29.82 12.25Q29.82 11.75 30.03 11.40Q30.24 11.06 30.67 10.87Q31.09 10.68 31.56 10.57Q32.02 10.46 32.68 10.35L32.68 10.35Q32.76 10.33 32.80 10.32Q32.84 10.32 32.91 10.31Q32.98 10.30 33.04 10.29L33.04 10.29Q33.14 10.28 33.17 10.26Q33.21 10.25 33.24 10.20Q33.28 10.15 33.28 10.07L33.28 10.07Q33.28 9.93 33.29 9.68Q33.31 9.44 33.31 9.34L33.31 9.34Q33.31 8.54 32.84 8.18Q32.38 7.83 31.95 7.83L31.95 7.83Q30.94 7.83 30.94 8.67L30.94 8.67Q30.94 8.78 30.97 8.95Q31.00 9.11 31.00 9.17L31.00 9.17Q31.00 9.45 30.74 9.45L30.74 9.45Q30.66 9.45 30.53 9.43Q30.41 9.41 30.25 9.36Q30.09 9.31 29.98 9.19Q29.88 9.07 29.88 8.90L29.88 8.90Q29.88 8.36 30.61 7.86Q31.35 7.36 32.23 7.36L32.23 7.36Q32.83 7.36 33.25 7.50Q33.67 7.64 33.87 7.82Q34.08 7.99 34.19 8.28Q34.30 8.57 34.31 8.73Q34.33 8.89 34.33 9.13L34.33 9.13Q34.33 10.14 34.29 10.72Q34.26 11.30 34.26 11.73L34.26 11.73Q34.26 12.25 34.37 12.55Q34.48 12.85 34.64 12.94Q34.79 13.02 34.94 13.03Q35.10 13.05 35.21 13.09Q35.32 13.13 35.32 13.26L35.32 13.26Q35.32 13.55 34.44 13.55L34.44 13.55Q34.08 13.55 33.82 13.36Q33.56 13.16 33.45 12.97Q33.33 12.78 33.32 12.78Q33.31 12.78 33.21 12.87Q33.11 12.96 32.94 13.09Q32.76 13.22 32.54 13.34Q32.33 13.47 32.04 13.56Q31.75 13.65 31.47 13.65L31.47 13.65Q30.58 13.65 30.17 13.23L30.17 13.23Q29.82 12.88 29.82 12.25ZM30.91 12.04L30.91 12.04Q30.91 12.52 31.19 12.80Q31.47 13.09 31.99 13.09L31.99 13.09Q32.35 13.09 32.61 12.98Q32.87 12.87 33.00 12.73Q33.12 12.59 33.19 12.36Q33.26 12.12 33.27 12.00Q33.28 11.87 33.28 11.66L33.28 11.66L33.28 10.65Q33.28 10.53 33.18 10.53L33.18 10.53Q33.15 10.53 33.11 10.54Q33.07 10.56 33.04 10.56L33.04 10.56Q32.72 10.61 32.63 10.63Q32.55 10.64 32.24 10.71Q31.93 10.78 31.82 10.84Q31.70 10.89 31.48 11.01Q31.26 11.13 31.17 11.26Q31.08 11.40 31.00 11.60Q30.91 11.80 30.91 12.04ZM36.04 7.98L36.04 7.98Q36.04 7.90 36.13 7.85Q36.22 7.81 36.43 7.78Q36.64 7.76 36.72 7.73L36.72 7.73Q36.99 7.66 37.27 7.54Q37.56 7.42 37.74 7.34Q37.91 7.25 37.97 7.25L37.97 7.25L38.00 7.25Q38.12 7.25 38.12 7.42L38.12 7.42Q38.12 7.45 38.11 7.67Q38.09 7.90 38.09 8.02L38.09 8.02Q38.09 8.39 38.16 8.39L38.16 8.39Q38.21 8.39 38.26 8.31Q38.32 8.23 38.46 8.08Q38.61 7.94 38.82 7.81L38.82 7.81Q39.45 7.42 40.04 7.42L40.04 7.42Q40.60 7.42 41.05 7.59Q41.50 7.77 41.75 8.03Q42 8.29 42.17 8.62Q42.34 8.96 42.39 9.24Q42.45 9.52 42.45 9.77L42.45 9.77Q42.45 9.83 42.45 9.90Q42.45 9.98 42.45 10.10Q42.46 10.22 42.46 10.65Q42.46 11.09 42.46 11.77L42.46 11.77L42.46 12.08Q42.46 12.61 42.61 12.82Q42.76 13.02 43.32 13.10L43.32 13.10Q43.60 13.15 43.60 13.31L43.60 13.31Q43.60 13.45 43.32 13.45L43.32 13.45Q42.99 13.45 42.64 13.42Q42.29 13.38 42.17 13.38L42.17 13.38Q41.97 13.38 41.56 13.41Q41.15 13.44 41.09 13.44L41.09 13.44Q40.81 13.44 40.81 13.26L40.81 13.26Q40.81 13.19 40.86 13.15Q40.91 13.10 40.97 13.09Q41.03 13.08 41.09 13.06L41.09 13.06L41.16 13.05Q41.47 12.95 41.47 12.11L41.47 12.11L41.47 10.22Q41.47 9.14 40.94 8.59Q40.40 8.04 39.66 8.04L39.66 8.04Q39.06 8.04 38.61 8.36Q38.16 8.68 38.09 8.89L38.09 8.89Q37.97 9.24 37.97 11.10L37.97 11.10L37.97 11.63Q37.97 12.33 38.11 12.67Q38.26 13.01 38.77 13.05L38.77 13.05Q38.91 13.05 39.12 13.10Q39.34 13.15 39.34 13.26L39.34 13.26Q39.34 13.44 39.07 13.44L39.07 13.44Q38.84 13.44 38.61 13.41Q38.39 13.38 38.05 13.38L38.05 13.38Q37.69 13.38 37.09 13.41L37.09 13.41L36.48 13.44Q36.27 13.44 36.27 13.30L36.27 13.30Q36.27 13.19 36.34 13.16Q36.41 13.13 36.52 13.12Q36.62 13.10 36.73 13.03Q36.83 12.96 36.92 12.69Q37.00 12.42 37.02 11.96L37.02 11.96Q37.04 11.17 37.04 10.91L37.04 10.91L37.04 8.89Q37.04 8.44 36.88 8.29Q36.72 8.13 36.44 8.13L36.44 8.13L36.30 8.13Q36.04 8.13 36.04 7.98ZM44.11 8.06L44.11 8.06Q44.11 7.98 44.16 7.92Q44.21 7.85 44.30 7.80Q44.38 7.74 44.54 7.61Q44.70 7.48 44.86 7.31L44.86 7.31Q45.07 7.08 45.30 6.77Q45.53 6.45 45.66 6.31Q45.79 6.16 45.92 6.16L45.92 6.16Q46.07 6.16 46.07 6.48L46.07 6.48Q46.07 6.61 46.05 6.87Q46.02 7.14 46.02 7.28L46.02 7.28Q46.02 7.48 46.09 7.52Q46.17 7.56 46.59 7.56L46.59 7.56L47.08 7.56Q47.39 7.56 47.61 7.53Q47.82 7.50 47.91 7.46Q47.99 7.42 48.05 7.39Q48.12 7.36 48.16 7.36L48.16 7.36Q48.30 7.36 48.30 7.52L48.30 7.52Q48.30 7.63 48.12 7.96Q47.94 8.29 47.85 8.29L47.85 8.29Q47.64 8.29 47.45 8.28Q47.25 8.27 47.11 8.27Q46.97 8.26 46.84 8.25Q46.72 8.23 46.63 8.22Q46.55 8.22 46.49 8.21Q46.42 8.20 46.40 8.20L46.40 8.20L46.37 8.19Q46.10 8.19 46.02 8.27Q45.95 8.36 45.95 8.65L45.95 8.65Q45.95 8.81 45.92 9.82Q45.89 10.84 45.89 11.26L45.89 11.26Q45.89 12.17 46.12 12.52Q46.35 12.88 47.10 12.88L47.10 12.88Q47.39 12.88 47.75 12.75Q48.10 12.61 48.13 12.61L48.13 12.61Q48.27 12.61 48.27 12.78L48.27 12.78Q48.27 12.98 47.79 13.28Q47.31 13.58 46.75 13.58L46.75 13.58Q44.86 13.58 44.86 11.94L44.86 11.94L44.86 11.73Q44.86 11.19 44.87 10.40Q44.88 9.62 44.90 9.05Q44.91 8.48 44.91 8.47L44.91 8.47Q44.91 8.33 44.86 8.29Q44.80 8.25 44.62 8.25L44.62 8.25Q44.56 8.25 44.47 8.25Q44.38 8.26 44.35 8.26L44.35 8.26Q44.11 8.26 44.11 8.06ZM49.20 12.25L49.20 12.25Q49.20 11.75 49.41 11.40Q49.62 11.06 50.04 10.87Q50.47 10.68 50.93 10.57Q51.39 10.46 52.05 10.35L52.05 10.35Q52.14 10.33 52.18 10.32Q52.22 10.32 52.29 10.31Q52.36 10.30 52.42 10.29L52.42 10.29Q52.51 10.28 52.55 10.26Q52.58 10.25 52.62 10.20Q52.65 10.15 52.65 10.07L52.65 10.07Q52.65 9.93 52.67 9.68Q52.68 9.44 52.68 9.34L52.68 9.34Q52.68 8.54 52.22 8.18Q51.76 7.83 51.32 7.83L51.32 7.83Q50.32 7.83 50.32 8.67L50.32 8.67Q50.32 8.78 50.34 8.95Q50.37 9.11 50.37 9.17L50.37 9.17Q50.37 9.45 50.12 9.45L50.12 9.45Q50.04 9.45 49.91 9.43Q49.78 9.41 49.62 9.36Q49.46 9.31 49.36 9.19Q49.25 9.07 49.25 8.90L49.25 8.90Q49.25 8.36 49.99 7.86Q50.72 7.36 51.60 7.36L51.60 7.36Q52.21 7.36 52.63 7.50Q53.05 7.64 53.25 7.82Q53.45 7.99 53.56 8.28Q53.68 8.57 53.69 8.73Q53.70 8.89 53.70 9.13L53.70 9.13Q53.70 10.14 53.67 10.72Q53.63 11.30 53.63 11.73L53.63 11.73Q53.63 12.25 53.75 12.55Q53.86 12.85 54.01 12.94Q54.17 13.02 54.32 13.03Q54.47 13.05 54.59 13.09Q54.70 13.13 54.70 13.26L54.70 13.26Q54.70 13.55 53.82 13.55L53.82 13.55Q53.45 13.55 53.19 13.36Q52.93 13.16 52.82 12.97Q52.71 12.78 52.70 12.78Q52.68 12.78 52.58 12.87Q52.49 12.96 52.31 13.09Q52.14 13.22 51.92 13.34Q51.70 13.47 51.41 13.56Q51.13 13.65 50.85 13.65L50.85 13.65Q49.95 13.65 49.55 13.23L49.55 13.23Q49.20 12.88 49.20 12.25ZM50.29 12.04L50.29 12.04Q50.29 12.52 50.57 12.80Q50.85 13.09 51.37 13.09L51.37 13.09Q51.73 13.09 51.99 12.98Q52.25 12.87 52.37 12.73Q52.50 12.59 52.57 12.36Q52.64 12.12 52.65 12.00Q52.65 11.87 52.65 11.66L52.65 11.66L52.65 10.65Q52.65 10.53 52.56 10.53L52.56 10.53Q52.53 10.53 52.49 10.54Q52.44 10.56 52.42 10.56L52.42 10.56Q52.09 10.61 52.01 10.63Q51.93 10.64 51.62 10.71Q51.31 10.78 51.19 10.84Q51.07 10.89 50.86 11.01Q50.64 11.13 50.55 11.26Q50.46 11.40 50.37 11.60Q50.29 11.80 50.29 12.04ZM56.17 13.15Q55.73 12.84 55.73 12.67Q55.73 12.50 56.17 12.12L56.17 12.12Q56.22 12.07 56.33 11.93Q56.43 11.79 56.54 11.71Q56.64 11.63 56.76 11.63Q56.87 11.63 57.33 12.18L57.33 12.18Q57.37 12.22 57.49 12.33Q57.61 12.43 57.68 12.52Q57.75 12.61 57.75 12.67L57.75 12.67Q57.75 12.74 57.68 12.82Q57.61 12.89 57.47 13.01Q57.33 13.12 57.26 13.17L57.26 13.17Q57.20 13.23 57.10 13.37Q56.99 13.51 56.90 13.59Q56.81 13.66 56.73 13.66L56.73 13.66Q56.60 13.66 56.41 13.42Q56.21 13.17 56.17 13.15L56.17 13.15Z"></path></g><!----><!----></svg>